# Blender v2.78 (sub 0) OBJ File: '21.blend'
# www.blender.org
mtllib Paper_towels_01.mtl
g Paper_towels_01_Circle.003
v 0.000000 0.000000 -0.877896
v -0.620766 0.000000 -0.620766
v -0.877896 0.000000 0.000000
v -0.620766 0.000000 0.620766
v 0.000000 0.000000 0.877896
v 0.620766 0.000000 0.620766
v 0.877896 0.000000 -0.000000
v 0.620766 0.000000 -0.620766
v -2.624152 0.000000 -2.624152
v -3.711112 0.000000 0.000000
v -2.624152 0.000000 2.624152
v 0.000000 0.000000 3.711112
v 2.624153 0.000000 2.624152
v 3.711112 0.000000 -0.000000
v 2.624153 0.000000 -2.624152
v 0.665878 0.000000 0.665878
v 0.941693 0.000000 -0.000000
v -0.665878 0.000000 0.665878
v 0.000000 0.000000 0.941693
v -0.665878 0.000000 -0.665878
v -0.941693 0.000000 0.000000
v 0.665878 0.000000 -0.665878
v 0.000000 0.000000 -0.941693
v 0.000000 14.600535 -0.877896
v -0.620766 14.600535 -0.620766
v -0.877896 14.600535 0.000000
v -0.620766 14.600535 0.620766
v 0.000000 14.600535 0.877896
v 0.620766 14.600535 0.620766
v 0.877896 14.600535 -0.000000
v 0.620766 14.600535 -0.620766
v -2.624152 14.600535 -2.624152
v -3.711112 14.600535 0.000000
v -2.624152 14.600535 2.624152
v 0.000000 14.600535 3.711112
v 2.624153 14.600535 2.624152
v 3.711112 14.600535 -0.000000
v 2.624153 14.600535 -2.624152
v 0.665878 14.600535 0.665878
v 0.941693 14.600535 -0.000000
v -0.665878 14.600535 0.665878
v 0.000000 14.600535 0.941693
v -0.665878 14.600535 -0.665878
v -0.941693 14.600535 0.000000
v 0.665878 14.600535 -0.665878
v 0.000000 14.600535 -0.941693
v -0.073800 0.000000 -3.756959
v 0.073800 0.000000 -3.636405
v -0.033459 0.000000 -3.522686
v 0.073800 14.600535 -3.636405
v -0.073800 14.600535 -3.756959
v -0.033459 14.600535 -3.522686
v 1.745054 0.000000 -3.441775
v 1.699085 0.000000 -3.344676
v 1.699085 14.600535 -3.344676
v 1.745054 14.600535 -3.441775
vn 0.0000 -1.0000 0.0000
vn 0.0000 1.0000 0.0000
vn 0.3827 0.0000 -0.9239
vn -0.3827 0.0000 -0.9239
vn -0.9239 0.0000 -0.3827
vn -0.9239 0.0000 0.3827
vn -0.3827 0.0000 0.9239
vn 0.3827 0.0000 0.9239
vn 0.9239 0.0000 0.3827
vn 0.9239 0.0000 -0.3827
vn 0.3689 0.0000 -0.9295
vn -0.1767 0.0000 0.9843
vn -0.4059 0.0000 -0.9139
vn 0.9038 0.0000 0.4279
vn 0.1707 0.0000 -0.9853
usemtl 795548
s off
f 1//1 23//1 22//1 8//1
f 2//1 20//1 23//1 1//1
f 4//1 18//1 21//1 3//1
f 6//1 16//1 19//1 5//1
f 8//1 22//1 17//1 7//1
f 3//1 21//1 20//1 2//1
f 5//1 19//1 18//1 4//1
f 7//1 17//1 16//1 6//1
f 24//2 31//2 45//2 46//2
f 25//2 24//2 46//2 43//2
f 27//2 26//2 44//2 41//2
f 29//2 28//2 42//2 39//2
f 31//2 30//2 40//2 45//2
f 26//2 25//2 43//2 44//2
f 28//2 27//2 41//2 42//2
f 30//2 29//2 39//2 40//2
f 5//3 4//3 27//3 28//3
f 6//4 5//4 28//4 29//4
f 7//5 6//5 29//5 30//5
f 8//6 7//6 30//6 31//6
f 1//7 8//7 31//7 24//7
f 2//8 1//8 24//8 25//8
f 3//9 2//9 25//9 26//9
f 4//10 3//10 26//10 27//10
usemtl FFFFFF
f 17//1 14//1 13//1 16//1
f 19//1 12//1 11//1 18//1
f 21//1 10//1 9//1 20//1
f 22//1 15//1 14//1 17//1
f 16//1 13//1 12//1 19//1
f 18//1 11//1 10//1 21//1
f 15//11 48//11 50//11 38//11
f 20//1 9//1 47//1 49//1 23//1
f 40//2 39//2 36//2 37//2
f 42//2 41//2 34//2 35//2
f 44//2 43//2 32//2 33//2
f 45//2 40//2 37//2 38//2
f 39//2 42//2 35//2 36//2
f 41//2 44//2 33//2 34//2
f 46//2 45//2 38//2 50//2 52//2
f 11//7 12//7 35//7 34//7
f 12//8 13//8 36//8 35//8
f 13//9 14//9 37//9 36//9
f 14//10 15//10 38//10 37//10
f 43//2 46//2 52//2 51//2 32//2
f 23//1 49//1 48//1 15//1 22//1
f 9//5 10//5 33//5 32//5
f 10//6 11//6 34//6 33//6
f 47//1 48//1 49//1
f 50//2 51//2 52//2
f 50//12 48//12 54//12 55//12
f 47//13 9//13 32//13 51//13
f 53//14 56//14 55//14 54//14
f 48//1 47//1 53//1 54//1
f 47//15 51//15 56//15 53//15
f 51//2 50//2 55//2 56//2
